<?xml version="1.0" standalone="no"?>
<!DOCTYPE svg PUBLIC "-//W3C//DTD SVG 20010904//EN"
 "http://www.w3.org/TR/2001/REC-SVG-20010904/DTD/svg10.dtd">
<svg version="1.0" xmlns="http://www.w3.org/2000/svg"
 width="603.000000pt" height="600.000000pt" viewBox="0 0 603.000000 600.000000"
 preserveAspectRatio="xMidYMid meet">
<metadata>
Created by potrace 1.10, written by Peter Selinger 2001-2011
</metadata>
<g transform="translate(0.000000,600.000000) scale(0.100000,-0.100000)"
fill="#222222" stroke="none">
<path d="M1287 5986 c-3 -8 -21 -17 -39 -21 -18 -4 -50 -21 -71 -38 -21 -16
-282 -274 -581 -572 -412 -413 -549 -556 -569 -595 -24 -45 -27 -63 -27 -145
0 -52 4 -97 10 -100 6 -3 10 -13 10 -21 0 -34 119 -159 769 -809 375 -374 681
-687 681 -695 0 -8 -306 -321 -681 -695 -650 -650 -769 -775 -769 -809 0 -8
-5 -18 -10 -21 -13 -8 -13 -202 0 -210 6 -3 10 -13 10 -22 0 -8 14 -33 31 -54
41 -53 1078 -1089 1126 -1126 48 -37 103 -53 183 -53 83 0 134 16 195 61 28
21 358 346 735 723 377 377 692 686 700 686 8 0 323 -309 700 -686 377 -377
708 -702 735 -723 61 -45 112 -61 195 -61 80 0 135 16 183 53 48 37 1085 1073
1126 1126 17 21 31 45 31 52 0 8 7 23 15 33 21 27 21 165 0 192 -8 10 -15 25
-15 32 0 33 -130 169 -769 807 -375 374 -681 687 -681 695 0 8 306 321 681
695 639 638 769 774 769 807 0 7 7 22 15 32 21 27 21 165 0 192 -8 10 -15 25
-15 33 0 7 -14 31 -31 52 -40 51 -1077 1088 -1126 1127 -21 16 -53 33 -71 37
-18 4 -36 13 -39 21 -7 18 -154 21 -150 2 1 -6 -14 -16 -33 -22 -19 -6 -55
-25 -80 -43 -25 -17 -355 -342 -735 -722 -379 -380 -697 -691 -705 -691 -8 0
-326 311 -705 691 -380 380 -710 705 -735 722 -25 18 -61 37 -80 43 -19 6 -34
16 -32 22 3 19 -144 16 -151 -2z"/>
</g>
</svg>
