<?xml version="1.0" standalone="no"?>
<!DOCTYPE svg PUBLIC "-//W3C//DTD SVG 20010904//EN"
 "http://www.w3.org/TR/2001/REC-SVG-20010904/DTD/svg10.dtd">
<svg version="1.0" xmlns="http://www.w3.org/2000/svg"
 width="603.000000pt" height="762.000000pt" viewBox="0 0 603.000000 762.000000"
 preserveAspectRatio="xMidYMid meet">
<metadata>
Created by potrace 1.10, written by Peter Selinger 2001-2011
</metadata>
<g transform="translate(0.000000,762.000000) scale(0.100000,-0.100000)"
fill="#222222" stroke="none">
<path d="M2900 7606 c0 -8 -12 -18 -27 -24 -32 -11 -75 -51 -103 -98 -20 -31
-21 -48 -21 -477 0 -436 1 -446 22 -486 28 -54 92 -105 152 -121 39 -10 58
-10 109 0 52 11 68 21 112 65 74 74 76 85 76 529 0 436 -3 462 -66 534 -24 27
-55 53 -69 56 -14 4 -25 13 -25 21 0 12 -16 15 -80 15 -62 0 -80 -3 -80 -14z"/>
<path d="M173 6475 c-65 -16 -103 -43 -142 -102 -27 -41 -31 -55 -31 -118 0
-41 6 -88 15 -108 18 -45 609 -637 635 -637 11 0 21 -4 25 -9 3 -6 25 -13 50
-17 84 -12 185 40 236 123 15 24 20 51 21 112 1 70 -2 84 -24 118 -28 42 -533
551 -595 600 -21 17 -55 33 -76 37 -21 4 -44 9 -50 10 -7 2 -35 -2 -64 -9z"/>
<path d="M5699 6476 c-25 -6 -62 -23 -82 -38 -57 -45 -567 -559 -595 -601 -22
-34 -25 -48 -24 -118 1 -61 6 -88 21 -112 51 -83 152 -135 236 -123 25 4 47
11 50 17 4 5 14 9 25 9 10 0 142 124 319 301 320 320 341 347 341 436 0 106
-83 210 -183 227 -21 4 -44 9 -50 10 -7 2 -33 -2 -58 -8z"/>
<path d="M2885 5909 c-22 -4 -74 -7 -115 -8 -41 0 -97 -5 -125 -11 -27 -6 -72
-15 -100 -19 -56 -9 -183 -43 -248 -67 -23 -8 -55 -19 -72 -24 -62 -17 -220
-92 -365 -172 -116 -63 -303 -211 -431 -338 -115 -115 -287 -331 -329 -415 -6
-11 -19 -33 -29 -50 -11 -16 -36 -64 -56 -105 -20 -41 -41 -84 -47 -94 -6 -11
-14 -31 -18 -45 -5 -14 -18 -51 -30 -81 -44 -115 -60 -165 -60 -188 0 -13 -5
-32 -10 -42 -15 -28 -41 -171 -52 -285 -5 -55 -12 -127 -15 -160 -4 -33 -8
-564 -10 -1180 -1 -616 -4 -1127 -6 -1135 -2 -13 -30 -15 -172 -16 -198 -1
-301 -11 -332 -30 -12 -8 -29 -14 -37 -14 -21 0 -129 -107 -151 -150 -36 -70
-45 -169 -45 -525 0 -241 4 -362 14 -415 26 -146 103 -242 241 -303 38 -16
182 -17 2710 -14 2323 2 2675 4 2709 17 43 16 149 113 166 151 5 13 14 31 19
39 5 8 16 47 26 85 14 61 16 124 13 475 -2 314 -6 412 -17 435 -7 17 -22 49
-33 72 -22 49 -92 114 -151 141 -60 27 -157 37 -357 36 -120 -1 -177 2 -182
10 -4 6 -8 551 -8 1211 0 1021 -3 1210 -15 1270 -8 38 -15 85 -15 103 0 36
-24 144 -46 205 -8 20 -14 47 -14 58 0 12 -6 35 -14 52 -8 18 -16 41 -19 52
-12 42 -40 113 -76 190 -21 44 -43 91 -49 105 -34 73 -158 266 -209 323 -18
20 -33 40 -33 45 0 4 -26 35 -58 69 -31 34 -66 72 -78 85 -71 80 -332 288
-424 337 -25 13 -59 34 -77 47 -17 13 -38 24 -46 24 -8 0 -20 7 -27 15 -7 8
-19 15 -26 15 -8 0 -39 13 -69 29 -30 16 -68 32 -85 36 -16 4 -32 11 -35 16
-4 5 -15 9 -27 9 -11 0 -32 6 -46 14 -26 13 -82 30 -182 55 -97 25 -260 50
-360 55 -58 3 -132 7 -165 9 -33 2 -78 0 -100 -4z m102 -2569 c2 -1146 -1
-1841 -7 -1850 -8 -13 -101 -15 -740 -15 -639 0 -732 2 -740 15 -6 9 -9 450
-6 1190 3 1231 3 1211 46 1385 27 108 105 293 161 380 10 17 22 37 26 45 29
64 212 270 319 360 57 48 210 146 279 179 39 18 82 39 97 47 14 8 33 14 41 14
9 0 28 6 44 14 30 15 103 35 218 60 39 8 112 14 165 13 l95 -2 2 -1835z"/>
</g>
</svg>
