<?xml version="1.0" standalone="no"?>
<!DOCTYPE svg PUBLIC "-//W3C//DTD SVG 20010904//EN"
 "http://www.w3.org/TR/2001/REC-SVG-20010904/DTD/svg10.dtd">
<svg version="1.0" xmlns="http://www.w3.org/2000/svg"
 width="603.000000pt" height="516.000000pt" viewBox="0 0 603.000000 516.000000"
 preserveAspectRatio="xMidYMid meet">
<metadata>
Created by potrace 1.10, written by Peter Selinger 2001-2011
</metadata>
<g transform="translate(0.000000,516.000000) scale(0.100000,-0.100000)"
fill="#222222" stroke="none">
<path d="M5050 5145 c0 -9 -14 -16 -37 -20 -35 -6 -86 -25 -123 -47 -8 -4 -22
-11 -30 -15 -38 -17 -132 -98 -200 -173 -41 -46 -80 -88 -85 -94 -16 -17 -112
-123 -190 -211 -38 -43 -75 -83 -80 -89 -11 -11 -66 -73 -190 -210 -38 -43
-82 -91 -97 -106 -14 -15 -59 -64 -98 -110 -39 -46 -84 -95 -98 -110 -15 -15
-58 -62 -97 -105 -73 -82 -171 -192 -190 -211 -35 -38 -98 -107 -173 -192 -47
-53 -91 -102 -96 -108 -26 -27 -167 -183 -261 -289 -38 -43 -75 -83 -80 -89
-11 -11 -66 -73 -190 -210 -38 -43 -82 -91 -97 -106 -14 -15 -59 -64 -98 -110
-39 -46 -84 -95 -98 -110 -15 -15 -58 -63 -97 -106 -127 -141 -179 -199 -190
-210 -5 -6 -37 -41 -70 -77 -32 -37 -66 -67 -75 -67 -8 0 -32 15 -52 33 -127
112 -164 144 -191 164 -17 13 -33 27 -36 31 -3 4 -118 104 -256 222 -137 118
-254 219 -260 225 -19 21 -153 105 -167 105 -8 0 -18 4 -24 10 -5 5 -43 19
-84 30 -169 45 -337 19 -500 -77 -105 -61 -323 -299 -374 -408 -11 -22 -24
-49 -29 -60 -31 -61 -49 -325 -27 -400 36 -120 90 -213 173 -296 70 -69 89
-87 257 -239 131 -118 182 -166 218 -201 15 -14 78 -71 140 -127 130 -118 183
-167 220 -203 15 -14 78 -71 140 -127 112 -102 150 -136 240 -221 26 -24 83
-76 127 -115 44 -38 98 -88 120 -109 104 -101 223 -170 335 -196 62 -14 284
-11 340 6 56 16 152 64 195 97 61 46 98 85 265 281 84 99 161 187 169 196 9 9
34 37 56 64 37 45 75 89 135 159 14 16 32 36 41 45 8 9 39 45 68 80 29 35 58
70 64 76 31 32 125 141 144 168 13 17 27 33 31 36 4 3 91 103 192 221 101 118
191 222 199 231 9 9 34 37 56 64 37 45 75 89 135 159 14 16 32 36 41 45 8 9
38 43 65 76 62 76 95 113 115 134 8 9 39 45 69 81 29 36 56 67 59 70 4 3 37
41 75 85 107 126 109 129 299 350 99 116 188 217 196 226 9 9 34 37 56 64 37
45 75 89 135 159 14 16 32 36 41 45 8 9 39 45 68 80 29 35 58 70 64 76 31 32
125 141 144 168 13 17 26 33 31 36 6 5 77 86 169 196 14 17 51 59 82 95 76 86
112 137 135 185 10 22 25 52 32 67 8 14 14 35 14 46 0 11 7 36 15 55 34 83 10
284 -50 412 -41 87 -72 125 -207 251 -62 58 -222 176 -258 190 -8 3 -28 12
-45 20 -16 7 -47 16 -67 19 -24 4 -38 11 -38 20 0 12 -23 15 -130 15 -107 0
-130 -3 -130 -15z"/>
</g>
</svg>
