<?xml version="1.0" standalone="no"?>
<!DOCTYPE svg PUBLIC "-//W3C//DTD SVG 20010904//EN"
 "http://www.w3.org/TR/2001/REC-SVG-20010904/DTD/svg10.dtd">
<svg version="1.0" xmlns="http://www.w3.org/2000/svg"
 width="150.000000pt" height="147.000000pt" viewBox="0 0 150.000000 147.000000"
 preserveAspectRatio="xMidYMid meet">
<metadata>
Created by potrace 1.10, written by Peter Selinger 2001-2011
</metadata>
<g transform="translate(0.000000,147.000000) scale(0.100000,-0.100000)"
fill="#222222" stroke="none">
<path d="M592 1435 c-2 -19 -9 -53 -17 -76 -8 -23 -15 -54 -15 -69 0 -23 -8
-32 -43 -49 -24 -12 -50 -21 -57 -21 -8 0 -44 20 -81 45 -37 25 -78 45 -91 45
-16 0 -44 -21 -86 -63 -49 -50 -62 -69 -62 -94 0 -17 7 -36 15 -43 8 -7 15
-18 15 -25 0 -7 7 -15 15 -19 8 -3 15 -12 15 -19 0 -8 7 -20 15 -27 20 -17 19
-36 -5 -85 -20 -40 -22 -42 -102 -59 -46 -10 -89 -20 -95 -22 -10 -2 -13 -35
-13 -118 l0 -114 37 -13 c21 -7 62 -15 92 -18 52 -6 55 -8 78 -50 27 -51 29
-74 8 -91 -8 -7 -15 -17 -15 -22 0 -6 -13 -27 -30 -48 -48 -60 -42 -85 39
-163 38 -37 75 -67 82 -67 6 0 27 11 45 25 18 14 36 25 39 25 3 0 21 11 39 25
35 26 56 31 72 16 5 -5 20 -11 33 -13 30 -4 34 -13 58 -118 l19 -85 115 -3
116 -3 16 63 c9 35 18 76 19 93 3 29 6 32 79 65 30 13 47 6 133 -55 26 -19 56
-35 66 -35 17 0 130 103 148 136 12 22 1 54 -36 103 -47 61 -58 89 -44 111 7
11 12 29 12 40 0 28 36 47 102 54 79 8 108 23 109 55 2 98 -1 193 -6 201 -3 6
-16 10 -28 10 -27 1 -147 32 -164 43 -7 5 -13 19 -13 32 0 13 -4 27 -10 30
-17 10 -11 36 15 71 14 18 25 36 25 39 0 3 11 21 25 39 14 18 25 40 25 49 0 8
-28 45 -63 81 -75 79 -105 85 -167 36 -21 -16 -42 -30 -48 -30 -5 0 -15 -7
-22 -15 -17 -21 -40 -19 -91 8 -42 23 -44 26 -51 80 -4 31 -12 66 -18 76 -5
11 -10 31 -10 45 l0 26 -118 0 -118 0 -2 -35z m248 -428 c64 -30 107 -72 145
-140 24 -44 26 -56 22 -135 -2 -48 -10 -103 -18 -123 -16 -40 -106 -139 -127
-139 -7 0 -23 -7 -37 -16 -16 -11 -48 -15 -107 -15 -70 -1 -91 3 -134 25 -133
67 -201 220 -158 359 25 80 113 173 189 199 70 23 157 17 225 -15z"/>
<path d="M631 819 c-52 -53 -56 -96 -12 -156 32 -45 68 -56 130 -42 57 13 81
49 81 119 0 59 -1 61 -42 90 -61 45 -104 42 -157 -11z"/>
</g>
</svg>
