<?xml version="1.0" standalone="no"?>
<!DOCTYPE svg PUBLIC "-//W3C//DTD SVG 20010904//EN"
 "http://www.w3.org/TR/2001/REC-SVG-20010904/DTD/svg10.dtd">
<svg version="1.0" xmlns="http://www.w3.org/2000/svg"
 width="603.000000pt" height="639.000000pt" viewBox="0 0 603.000000 639.000000"
 preserveAspectRatio="xMidYMid meet">
<metadata>
Created by potrace 1.10, written by Peter Selinger 2001-2011
</metadata>
<g transform="translate(0.000000,639.000000) scale(0.100000,-0.100000)"
fill="#222222" stroke="none">
<path d="M1660 6376 c0 -9 -18 -16 -57 -21 -67 -7 -156 -31 -196 -51 -16 -8
-34 -14 -40 -14 -12 0 -137 -62 -182 -91 -16 -10 -37 -22 -45 -26 -49 -22
-187 -146 -278 -248 -51 -58 -131 -182 -164 -255 -82 -181 -97 -235 -124 -465
-3 -27 -8 -117 -10 -200 -2 -82 -6 -155 -8 -161 -3 -8 -42 -11 -123 -10 -130
2 -241 -13 -289 -38 -48 -25 -104 -85 -125 -133 -26 -61 -26 -185 0 -246 23
-54 101 -123 167 -149 40 -15 78 -18 210 -18 121 0 163 -3 165 -12 2 -7 2
-182 -1 -388 l-5 -375 -179 -2 c-141 -2 -183 -5 -202 -18 -13 -8 -29 -15 -36
-15 -19 0 -118 -110 -118 -131 0 -10 -5 -21 -10 -24 -6 -3 -10 -44 -10 -90 0
-101 21 -159 81 -216 72 -70 110 -80 304 -82 l170 -2 5 -375 c3 -206 3 -381 1
-388 -2 -9 -46 -12 -173 -12 -169 0 -169 0 -231 -31 -115 -56 -157 -128 -157
-264 0 -46 5 -87 10 -90 6 -3 10 -14 10 -23 0 -30 88 -120 138 -142 41 -19 69
-22 222 -23 l175 -2 7 -170 c4 -93 10 -186 12 -205 14 -136 19 -170 31 -210
56 -185 57 -188 87 -240 4 -8 10 -21 13 -27 13 -33 17 -40 35 -68 11 -16 23
-37 27 -45 16 -35 126 -170 185 -226 183 -177 405 -294 638 -337 36 -7 771
-11 2118 -14 l2063 -3 55 26 c63 30 119 92 146 161 17 46 18 171 18 3000 l0
2952 -21 53 c-24 63 -86 130 -146 158 -24 11 -41 25 -38 30 4 7 -721 10 -2059
10 -1753 0 -2066 -2 -2066 -14z m1830 -1666 c201 -57 369 -169 485 -325 40
-54 49 -68 88 -150 50 -104 58 -131 74 -235 17 -117 19 -154 10 -205 -3 -22
-9 -58 -12 -80 -9 -60 -37 -157 -52 -180 -7 -11 -13 -27 -13 -36 0 -9 -7 -22
-15 -29 -8 -7 -15 -19 -15 -27 0 -20 -108 -159 -171 -219 -76 -72 -244 -174
-288 -174 -9 0 -22 -5 -28 -11 -6 -6 -35 -14 -64 -17 -29 -4 -54 -12 -56 -17
-4 -13 46 -31 107 -40 66 -8 179 -43 265 -80 70 -30 167 -81 177 -92 6 -7 15
-13 20 -13 17 0 172 -123 238 -189 195 -196 336 -468 370 -716 6 -38 13 -81
16 -95 4 -14 7 -50 8 -80 l1 -55 -1346 -3 c-1089 -2 -1349 0 -1357 11 -7 8 -8
26 -2 52 5 22 10 65 10 95 0 30 5 73 11 95 6 22 14 58 19 80 8 39 17 68 48
150 19 51 78 171 103 210 10 17 22 37 26 45 15 33 101 139 168 205 64 65 209
182 245 198 8 4 29 16 45 27 17 11 37 22 45 26 8 3 22 10 30 15 8 5 22 12 30
15 8 3 29 12 45 19 83 36 208 75 246 76 13 0 56 10 94 23 l70 23 -55 7 c-54 7
-117 26 -175 51 -16 8 -37 16 -45 19 -47 19 -173 112 -231 173 -60 63 -119
136 -119 149 0 4 -6 15 -13 23 -17 20 -70 149 -91 222 -12 41 -16 98 -16 214
0 159 11 228 46 298 8 16 14 35 14 42 0 31 110 194 176 262 121 124 256 201
429 246 73 19 335 17 405 -3z"/>
</g>
</svg>
