<?xml version="1.0" standalone="no"?>
<!DOCTYPE svg PUBLIC "-//W3C//DTD SVG 20010904//EN"
 "http://www.w3.org/TR/2001/REC-SVG-20010904/DTD/svg10.dtd">
<svg version="1.0" xmlns="http://www.w3.org/2000/svg"
 width="603.000000pt" height="795.000000pt" viewBox="0 0 603.000000 795.000000"
 preserveAspectRatio="xMidYMid meet">
<metadata>
Created by potrace 1.10, written by Peter Selinger 2001-2011
</metadata>
<g transform="translate(0.000000,795.000000) scale(0.100000,-0.100000)"
fill="#222222" stroke="none">
<path d="M1840 7936 c0 -10 -16 -17 -47 -21 -55 -7 -101 -28 -158 -70 -90 -66
-131 -123 -189 -257 l-16 -38 -479 0 c-531 0 -576 -4 -688 -66 -113 -63 -214
-191 -252 -319 -13 -43 -10 -257 4 -310 15 -55 78 -150 144 -216 64 -63 100
-85 206 -125 49 -18 127 -19 2625 -19 2498 0 2576 1 2625 19 106 40 142 62
206 125 116 115 169 235 169 382 0 123 -29 206 -110 314 -83 111 -163 165
-293 196 -71 17 -123 19 -558 19 l-479 0 -16 38 c-58 134 -99 191 -189 257
-57 42 -103 63 -157 70 -32 4 -48 11 -48 21 0 12 -156 14 -1150 14 -994 0
-1150 -2 -1150 -14z"/>
<path d="M508 5821 c-37 -9 -73 -22 -80 -29 -6 -6 -16 -12 -20 -12 -18 0 -116
-80 -144 -117 -90 -119 -119 -212 -110 -353 12 -176 24 -324 35 -440 6 -63 16
-162 22 -220 5 -58 14 -163 19 -235 5 -71 14 -161 19 -200 6 -38 11 -95 11
-125 0 -30 7 -118 15 -195 8 -77 22 -221 30 -320 9 -99 22 -243 30 -320 8 -77
15 -165 15 -195 1 -30 7 -102 15 -160 8 -58 14 -130 15 -160 0 -30 7 -118 15
-195 8 -77 22 -221 30 -320 9 -99 21 -227 27 -285 6 -58 14 -157 18 -220 4
-63 13 -166 19 -227 6 -62 16 -164 22 -225 6 -62 15 -165 19 -228 4 -63 13
-167 19 -230 7 -63 19 -187 28 -275 14 -145 19 -167 50 -231 44 -91 137 -189
213 -226 131 -62 -27 -58 2150 -58 2177 0 2019 -4 2150 58 73 35 169 135 211
220 27 55 36 91 51 202 9 74 17 164 18 200 0 36 5 97 11 135 5 39 14 129 19
200 5 72 14 177 19 235 6 58 16 157 22 220 6 63 15 167 19 230 5 63 13 162 19
220 27 270 34 343 41 450 4 63 13 166 19 228 6 61 16 163 22 225 6 61 15 164
19 227 4 63 13 165 19 225 6 61 16 160 22 220 6 61 14 162 19 225 4 63 13 165
19 225 6 61 16 162 22 225 6 63 15 167 19 230 4 63 12 162 18 220 6 58 18 186
27 285 9 99 20 227 25 285 13 142 13 189 -4 252 -32 120 -92 212 -182 279 -29
21 -57 39 -62 39 -4 0 -13 5 -20 12 -7 7 -45 20 -85 30 -67 16 -222 17 -2482
16 -2206 0 -2416 -2 -2477 -17z m2554 -1143 c92 -21 159 -76 208 -173 20 -39
20 -60 20 -1578 0 -1443 -1 -1541 -17 -1570 -27 -49 -81 -114 -113 -137 -16
-11 -62 -29 -102 -40 -70 -18 -76 -18 -139 -2 -127 33 -203 107 -235 227 -20
74 -20 2976 0 3051 45 170 201 262 378 222z m-1397 -569 c58 -26 137 -102 161
-155 9 -22 20 -77 25 -124 4 -47 12 -141 18 -210 22 -253 34 -408 41 -535 4
-71 13 -191 19 -265 6 -74 16 -193 22 -265 7 -71 15 -188 19 -260 4 -71 13
-193 19 -270 34 -410 35 -425 21 -478 -49 -194 -263 -291 -443 -202 -91 45
-167 161 -167 254 0 25 -7 105 -15 176 -8 72 -15 155 -15 185 0 30 -6 135 -15
232 -8 98 -22 258 -30 355 -9 98 -16 205 -16 238 0 33 -4 94 -10 135 -5 41
-14 145 -18 230 -5 85 -14 209 -20 275 -31 349 -34 428 -17 483 24 82 114 191
158 192 7 1 24 7 38 15 40 23 167 19 225 -6z m2895 0 c84 -34 149 -109 176
-201 17 -55 14 -134 -17 -483 -6 -66 -15 -190 -20 -275 -4 -85 -13 -189 -18
-230 -6 -41 -10 -102 -10 -135 0 -33 -7 -140 -16 -237 -8 -98 -22 -258 -30
-355 -9 -98 -15 -203 -15 -233 0 -30 -7 -113 -15 -185 -8 -71 -15 -152 -15
-178 0 -93 -76 -207 -167 -252 -180 -89 -394 8 -443 202 -14 53 -13 68 21 478
6 77 15 199 19 270 4 72 13 190 19 263 6 72 16 192 22 265 6 72 15 191 19 262
7 127 19 282 41 535 6 69 14 163 18 210 9 104 28 148 90 210 73 73 118 91 221
87 47 -2 101 -10 120 -18z"/>
</g>
</svg>
