<?xml version="1.0" standalone="no"?>
<!DOCTYPE svg PUBLIC "-//W3C//DTD SVG 20010904//EN"
 "http://www.w3.org/TR/2001/REC-SVG-20010904/DTD/svg10.dtd">
<svg version="1.0" xmlns="http://www.w3.org/2000/svg"
 width="498.000000pt" height="699.000000pt" viewBox="0 0 498.000000 699.000000"
 preserveAspectRatio="xMidYMid meet">
<metadata>
Created by potrace 1.10, written by Peter Selinger 2001-2011
</metadata>
<g transform="translate(0.000000,699.000000) scale(0.100000,-0.100000)"
fill="#222222" stroke="none">
<path d="M376 3768 c-2 -1773 -5 -3283 -7 -3355 -3 -83 0 -134 6 -136 6 -1
161 -2 345 -2 l335 1 -4 140 c-2 76 -6 1587 -8 3357 l-3 3217 -330 0 -330 0
-4 -3222z"/>
<path d="M1320 5865 c0 -1251 -6 -1156 66 -1121 19 9 43 16 54 16 11 0 34 6
52 14 18 8 60 22 93 31 33 10 78 23 100 30 22 7 65 20 95 29 30 9 98 30 150
46 52 16 120 37 150 46 30 9 73 22 95 29 22 7 67 21 100 30 33 10 75 24 93 31
18 8 41 14 52 14 11 0 34 6 52 14 18 7 60 21 93 31 86 25 135 40 175 55 19 6
51 16 70 20 33 8 46 12 130 40 19 6 49 16 65 20 114 34 148 44 228 71 17 6 48
14 67 19 19 4 46 12 60 17 25 11 76 26 185 58 33 10 75 24 93 31 18 8 41 14
52 14 11 0 34 6 52 14 18 8 60 22 93 32 33 9 78 23 100 29 22 7 63 19 90 28
105 32 262 79 300 92 22 7 65 20 95 29 30 9 96 30 147 46 50 17 99 30 107 30
8 0 30 6 48 14 18 7 61 22 96 33 35 11 63 24 62 29 0 5 -42 23 -93 40 -50 17
-128 43 -172 58 -44 15 -96 31 -115 36 -19 4 -51 14 -70 20 -88 31 -109 38
-165 55 -33 9 -76 23 -95 30 -32 12 -161 53 -430 138 -52 16 -111 35 -130 42
-104 36 -115 40 -235 75 -16 4 -46 14 -65 21 -19 6 -51 17 -70 24 -19 7 -82
27 -140 45 -246 77 -297 93 -330 105 -104 36 -115 40 -235 75 -16 4 -46 14
-65 21 -88 30 -111 38 -200 66 -269 85 -398 126 -430 138 -19 7 -62 21 -95 30
-33 10 -75 24 -93 31 -18 8 -39 14 -47 14 -8 0 -29 6 -47 14 -29 12 -94 32
-165 51 -13 4 -23 13 -23 21 0 8 -10 14 -25 14 l-25 0 0 -1125z"/>
<path d="M318 543 c-21 -5 -24 -19 -5 -26 6 -3 -4 -4 -23 -1 -22 2 -49 -4 -73
-16 -21 -11 -44 -20 -52 -20 -18 0 -20 -16 -2 -24 6 -3 2 -3 -9 -1 -13 4 -29
-1 -40 -12 -9 -10 -24 -18 -33 -18 -9 0 -16 -7 -16 -15 0 -8 -8 -23 -17 -32
-27 -27 -12 -83 17 -71 8 3 15 0 15 -6 0 -6 4 -11 8 -11 5 0 8 10 7 23 -1 14
-8 21 -19 19 -11 -2 -16 4 -16 23 0 19 5 25 21 25 11 0 17 5 14 10 -3 6 -2 10
4 10 5 0 13 -4 16 -10 3 -5 2 -10 -3 -10 -18 0 -21 -28 -4 -44 16 -14 17 -11
16 39 -1 46 2 53 17 52 10 -1 16 -4 14 -8 -3 -3 5 -15 16 -25 11 -10 18 -23
15 -30 -5 -14 17 -37 27 -27 4 3 13 0 22 -7 13 -11 14 -10 9 6 -6 15 -4 17 6
7 7 -6 18 -9 25 -7 14 6 30 -12 37 -42 4 -17 1 -21 -18 -21 -16 0 -23 5 -22
15 2 11 -7 16 -34 16 -34 1 -36 0 -22 -16 9 -9 21 -14 28 -12 15 6 31 -12 38
-42 5 -18 1 -21 -33 -21 -35 0 -37 2 -36 30 2 30 1 31 -50 31 -47 1 -51 -1
-37 -14 17 -17 45 -20 57 -5 5 6 7 4 6 -5 -4 -38 2 -49 29 -52 15 -2 27 -7 27
-13 0 -18 16 -35 26 -29 5 3 16 1 23 -5 10 -9 12 -3 9 29 -5 46 7 51 35 15 24
-31 29 -31 27 -3 -1 15 -8 22 -18 20 -13 -2 -16 8 -14 60 2 53 -1 63 -15 62
-12 -1 -16 6 -15 30 l2 31 -61 -1 -62 -1 1 32 c1 27 5 33 24 33 25 0 48 -22
39 -37 -4 -5 -2 -12 4 -16 6 -3 14 4 19 17 10 27 6 39 -12 32 -8 -3 -13 4 -13
16 0 23 34 28 55 8 11 -10 13 -10 7 0 -4 6 -2 12 3 12 6 0 11 -4 11 -10 0 -5
4 -10 9 -10 5 0 7 9 4 20 -3 11 0 26 6 34 14 16 4 24 -21 19z"/>
<path d="M1084 525 c11 -8 14 -15 8 -15 -9 0 -9 -5 0 -20 7 -11 16 -20 21 -20
4 0 6 4 3 9 -3 5 7 8 22 8 15 0 22 -2 15 -4 -10 -3 -10 -9 0 -24 6 -10 15 -19
20 -19 4 0 5 5 2 10 -3 6 -1 10 4 10 6 0 11 -4 11 -10 0 -5 5 -10 11 -10 5 0
8 4 5 9 -3 5 7 8 22 8 15 0 21 -2 14 -4 -10 -4 -10 -8 0 -21 11 -14 10 -15 -7
-8 -27 10 -6 -12 26 -28 13 -6 29 -22 36 -36 6 -13 21 -24 32 -25 24 -2 28 13
6 21 -8 4 -15 11 -15 16 0 7 5 6 13 -1 8 -6 16 -9 18 -6 3 2 5 -19 6 -46 0
-28 -3 -46 -6 -41 -3 6 -17 12 -31 13 -17 3 -25 10 -25 23 0 27 -21 31 -34 8
-12 -23 -61 -27 -61 -6 0 8 9 23 21 35 32 32 17 48 -39 40 -19 -3 -5 -73 20
-98 l26 -26 17 21 c15 17 21 18 36 9 26 -16 24 -29 -3 -27 -38 3 -45 1 -43
-18 2 -25 15 -43 26 -36 10 6 39 -13 39 -26 0 -5 -12 -7 -26 -5 -18 2 -22 -1
-15 -8 19 -19 12 -23 -40 -24 -38 0 -49 3 -45 13 3 7 1 16 -4 19 -6 4 -10 2
-10 -3 0 -5 -11 -22 -25 -38 -28 -33 -30 -40 -12 -47 6 -2 -23 -4 -65 -3 -69
1 -76 0 -63 -14 13 -15 -12 -16 -280 -16 -261 0 -295 2 -292 15 1 12 -6 15
-31 13 -27 -3 -33 0 -30 14 3 16 -5 18 -74 18 l-76 -1 1 31 c2 31 2 31 -45 30
-47 -2 -47 -1 -44 27 2 16 0 32 -5 35 -5 3 -9 -2 -9 -10 0 -8 -5 -18 -11 -21
-6 -4 -9 0 -7 11 2 13 -2 18 -14 16 -14 -2 -17 3 -14 27 2 17 -1 28 -6 25 -5
-3 -14 -1 -21 5 -8 6 -18 6 -27 1 -12 -8 -11 -10 6 -10 19 0 22 -5 20 -37 -1
-29 3 -38 15 -37 9 1 16 -6 15 -15 -1 -9 6 -15 17 -15 9 1 17 -4 17 -12 0 -8
6 -14 13 -14 8 0 22 -9 32 -20 11 -13 25 -18 37 -14 12 3 18 0 18 -10 0 -9 6
-17 13 -17 35 -5 54 -4 75 3 13 4 22 3 22 -2 0 -6 -8 -10 -17 -10 -17 -1 -17
-1 -1 -14 11 -8 38 -12 68 -10 36 2 50 -1 50 -11 0 -7 6 -15 13 -17 10 -3 526
-2 580 1 9 1 17 8 17 16 0 11 11 13 46 10 35 -3 50 1 64 15 12 12 28 17 43 15
15 -3 30 2 42 15 10 11 22 17 27 14 5 -3 18 2 30 12 11 10 27 19 36 19 10 0
16 7 16 16 -1 9 6 16 15 15 9 0 15 6 15 15 -1 9 6 16 15 15 12 -1 16 8 15 39
-1 22 1 34 3 28 9 -26 23 -12 23 23 0 26 -4 35 -13 31 -9 -3 -13 5 -12 27 0
23 -4 31 -16 30 -9 -1 -16 6 -15 15 0 9 -6 16 -14 16 -8 0 -23 8 -33 18 -10
10 -25 16 -32 13 -9 -3 -12 0 -8 10 5 13 -11 18 -54 17 -6 0 -9 6 -6 13 5 13
-24 19 -84 17 -6 0 -9 6 -6 13 4 10 -3 14 -23 14 -28 -1 -28 -1 -10 -15z m249
-294 c-7 -26 -40 -24 -40 3 0 18 4 22 22 18 15 -2 21 -9 18 -21z"/>
<path d="M312 403 c26 -28 25 -28 23 -1 -1 14 -9 22 -23 23 l-22 2 22 -24z"/>
<path d="M1130 422 c0 -3 8 -11 18 -18 15 -12 13 -13 -16 -10 -31 3 -32 3 -16
-15 9 -10 22 -15 30 -12 14 5 26 31 21 48 -2 9 -37 16 -37 7z"/>
<path d="M1095 362 c-13 -9 -15 -42 -4 -42 5 0 12 -1 16 -2 8 -4 12 42 3 47
-3 2 -10 1 -15 -3z"/>
<path d="M140 333 c0 -4 39 -43 43 -43 2 0 3 10 2 22 -1 14 -9 22 -23 23 -12
1 -22 0 -22 -2z"/>
<path d="M1122 302 c-8 -2 -8 -8 1 -23 6 -10 15 -19 20 -19 4 0 5 5 2 10 -3 6
-1 10 4 10 6 0 11 -4 11 -10 0 -5 4 -10 8 -10 5 0 8 10 7 22 -1 21 -25 30 -53
20z"/>
<path d="M345 269 c-10 -15 3 -25 16 -12 7 7 7 13 1 17 -6 3 -14 1 -17 -5z"/>
<path d="M1064 268 c-3 -4 2 -8 11 -8 11 0 15 -5 12 -14 -3 -7 0 -19 6 -25 8
-8 3 -10 -20 -7 -45 5 -57 -6 -33 -32 21 -22 27 -37 10 -27 -20 13 -9 -11 13
-27 l23 -16 -2 44 c-2 31 1 42 9 37 17 -10 47 -11 47 -1 0 17 -5 23 -17 20 -7
-2 -11 9 -10 29 2 27 -2 33 -21 34 -13 1 -25 -2 -28 -7z"/>
<path d="M429 223 c16 -22 38 -33 26 -13 -3 6 -1 10 4 10 6 0 11 -4 11 -10 0
-5 4 -10 8 -10 5 0 8 10 7 22 -1 18 -8 22 -37 23 -35 1 -35 0 -19 -22z"/>
<path d="M932 232 c6 -7 8 -15 5 -19 -10 -10 13 -32 28 -27 7 3 22 -6 33 -20
24 -32 29 -32 27 -3 -1 14 -8 21 -18 19 -12 -2 -15 5 -13 25 1 22 6 27 21 25
11 -2 16 0 12 5 -5 4 -30 8 -57 8 -38 0 -46 -3 -38 -13z"/>
<path d="M1190 211 c0 -3 11 -13 24 -23 22 -16 22 -15 21 5 -1 13 -9 21 -23
22 -12 1 -22 -1 -22 -4z"/>
<path d="M890 183 c0 -4 39 -43 43 -43 2 0 3 10 2 22 -1 14 -9 22 -23 23 -12
1 -22 0 -22 -2z"/>
<path d="M372 133 c26 -28 25 -28 23 -1 -1 14 -9 22 -23 23 l-22 2 22 -24z"/>
</g>
</svg>
